<svg width="21" height="17" viewBox="0 0 21 17" fill="none" xmlns="http://www.w3.org/2000/svg">
<g opacity="0.5">
<path d="M10.8471 16.8299C10.8473 16.8299 10.8492 16.8294 10.8494 16.8294V2.41851C10.6104 2.29632 8.02263 0.233164 4.23528 0.0328286L3.60309 0V14.4149L4.17487 14.4425C8.29526 14.6391 10.3574 16.5803 10.8471 16.8299Z" fill="black"/>
<path d="M12.0505 2.16336V16.5814C12.9518 16.4226 14.2901 16.249 15.8947 16.2609C18.4164 16.2797 20.011 16.7384 20.4979 16.817V2.41258C20.3003 2.39052 18.503 1.86322 15.8947 1.83191C14.7568 1.81822 13.4536 1.9051 12.0505 2.16336ZM13.8521 12.5482V5.50023L19.1384 9.02419L13.8521 12.5482Z" fill="black"/>
<path d="M15.0532 7.74408V10.3045L16.9732 9.02432L15.0532 7.74408Z" fill="black"/>
<path d="M7.61116 16.3684C6.71646 16.0125 5.5442 15.7102 4.11747 15.6423L2.4021 15.5597V2.05908C1.02117 2.26434 0.282967 2.48617 0 2.54987V17L0.745971 16.8129C2.97396 16.2566 5.33362 16.1114 7.61116 16.3684Z" fill="black"/>
</g>
</svg>
