<svg width="19" height="19" viewBox="0 0 19 19" fill="none" xmlns="http://www.w3.org/2000/svg">
<path d="M9.30753 15.4437C9.47608 15.3376 9.69059 15.3376 9.85914 15.4437L14.4537 18.3373C14.8431 18.5826 15.3349 18.2356 15.2345 17.7865L14 12.2645C13.9593 12.0825 14.0197 11.8927 14.158 11.7676L18.2873 8.03492C18.6224 7.73203 18.4358 7.1753 17.9859 7.13547L12.5911 6.65788C12.3978 6.64076 12.2303 6.51692 12.1573 6.33711L10.0628 1.18054C9.88803 0.750158 9.27864 0.750157 9.10383 1.18054L7.00938 6.33711C6.93634 6.51692 6.76884 6.64076 6.57552 6.65788L1.18079 7.13547C0.73087 7.1753 0.544301 7.73203 0.879373 8.03492L5.00865 11.7676C5.14698 11.8927 5.20735 12.0825 5.16666 12.2645L3.93213 17.7865C3.83172 18.2356 4.32358 18.5826 4.71302 18.3373L9.30753 15.4437Z" fill="#FF953F"/>
</svg>
